<?xml version="1.0" encoding="UTF-8"?>
<svg id="Layer_2" data-name="Layer 2" xmlns="http://www.w3.org/2000/svg" viewBox="0 0 83.44 57.65">
  <defs>
    <style>
      .cls-1 {
        fill: #fff;
      }
    </style>
  </defs>
  <g id="Layer_1-2" data-name="Layer 1">
    <path id="Path_91" data-name="Path 91" class="cls-1" d="m83.15,24.08c0-1.29-1.06-2.33-2.35-2.32,0,0,0,0-.01,0l-7.91.07c-1.29.01-2.33,1.07-2.32,2.36l.05,5.54h-3.23v-11.4c0-1.29-1.05-2.34-2.34-2.34l-6.88-.02-.1-5.54c-.02-1.27-1.06-2.29-2.33-2.3l-10.4-.1v-3.35h9.29c1.3,0,2.35-1.05,2.35-2.35s-1.05-2.35-2.35-2.35h-31.99c-1.3,0-2.35,1.05-2.35,2.35s1.05,2.35,2.35,2.35h9.29v3.23l-9.98-.09c-.62,0-1.22.25-1.67.68-.44.44-.69,1.04-.69,1.66v2.98h-9.38c-1.3,0-2.35,1.05-2.35,2.35v12.35h-3.14v-7.74c0-1.3-1.05-2.35-2.35-2.35-1.3,0-2.35,1.05-2.35,2.35v21.8c0,1.3,1.05,2.35,2.35,2.35,1.3,0,2.35-1.05,2.35-2.35v-9.37h3.14v12.89c0,1.3,1.05,2.35,2.35,2.35h10.64l9.77,9.22c.44.41,1.01.64,1.61.64h32.83c1.3,0,2.35-1.05,2.35-2.34,0,0,0,0,0,0v-10.69l2.82.03v4.86c0,1.3,1.05,2.35,2.35,2.35.01,0,.02,0,.04,0l8.56-.13c1.29-.02,2.32-1.08,2.31-2.37l-.29-25.26Zm-8.27,23.04v-4.8c0-1.29-1.04-2.33-2.32-2.35l-7.51-.07c-.63,0-1.23.24-1.67.68-.44.44-.69,1.04-.69,1.67v10.71h-29.55l-9.77-9.23c-.44-.41-1.01-.64-1.61-.64h-9.23v-25.24h9.38c1.3,0,2.35-1.05,2.35-2.34v-2.96l29.14.25.1,5.55c.02,1.27,1.06,2.3,2.34,2.3l6.84.02v11.41c0,1.3,1.05,2.35,2.34,2.35h7.94c1.3,0,2.35-1.05,2.35-2.34,0,0,0-.02,0-.02l-.05-5.56,3.22-.03.24,20.58-3.84.06Z"/>
  </g>
</svg>