<?xml version="1.0" encoding="UTF-8"?>
<svg id="Layer_2" data-name="Layer 2" xmlns="http://www.w3.org/2000/svg" viewBox="0 0 108.02 46.52">
  <defs>
    <style>
      .cls-1 {
        fill: #fff;
      }
    </style>
  </defs>
  <g id="Layer_1-2" data-name="Layer 1">
    <g>
      <path id="Path_92" data-name="Path 92" class="cls-1" d="m21.3,15.4V5.29h61.7v10.11c0,1.46,1.19,2.64,2.65,2.64h7.76l11.59,8.11,3.03-4.33-12.27-8.59c-.44-.31-.97-.48-1.52-.48h-5.94V2.64c0-1.46-1.18-2.64-2.64-2.64H18.65c-1.46,0-2.65,1.18-2.65,2.64h0v10.12H0v5.29h18.65c1.46,0,2.64-1.18,2.64-2.65"/>
      <path id="Path_93" data-name="Path 93" class="cls-1" d="m94.24,25.82h-8.59c-1.46,0-2.64,1.18-2.64,2.64v12.76H21.3v-11.44c0-1.46-1.18-2.65-2.65-2.65H0v5.29h16.01v11.44c0,1.46,1.18,2.64,2.64,2.64h66.99c1.46,0,2.65-1.18,2.65-2.64v-12.76h4.94l10.05,8.85,3.5-3.97-10.8-9.52c-.48-.43-1.11-.66-1.75-.66"/>
      <path id="Path_94" data-name="Path 94" class="cls-1" d="m32.46,16.92c2.5,0,4.52-2.02,4.52-4.52,0-2.5-2.02-4.52-4.52-4.52s-4.52,2.02-4.52,4.52h0c0,2.5,2.02,4.52,4.52,4.52"/>
      <path id="Path_95" data-name="Path 95" class="cls-1" d="m46.28,16.92c2.5,0,4.52-2.02,4.52-4.52,0-2.5-2.02-4.52-4.52-4.52s-4.52,2.02-4.52,4.52h0c0,2.5,2.02,4.52,4.52,4.52h0"/>
      <path id="Path_96" data-name="Path 96" class="cls-1" d="m60.1,16.92c2.5,0,4.52-2.02,4.52-4.52,0-2.5-2.02-4.52-4.52-4.52s-4.52,2.02-4.52,4.52h0c0,2.5,2.02,4.52,4.52,4.52h0"/>
      <path id="Path_97" data-name="Path 97" class="cls-1" d="m43.6,23.99c0-2.5-2.02-4.52-4.52-4.52-2.5,0-4.52,2.02-4.52,4.52,0,2.5,2.02,4.52,4.52,4.52h0c2.5,0,4.52-2.02,4.52-4.52"/>
      <path id="Path_98" data-name="Path 98" class="cls-1" d="m57.43,23.99c0-2.5-2.02-4.52-4.52-4.52-2.5,0-4.52,2.02-4.52,4.52,0,2.5,2.02,4.52,4.52,4.52h0c2.5,0,4.52-2.02,4.52-4.52h0"/>
      <path id="Path_99" data-name="Path 99" class="cls-1" d="m71.25,23.99c0-2.5-2.02-4.52-4.52-4.52-2.5,0-4.52,2.02-4.52,4.52,0,2.5,2.02,4.52,4.52,4.52h0c2.5,0,4.52-2.02,4.52-4.52h0"/>
      <path id="Path_100" data-name="Path 100" class="cls-1" d="m73.93,7.88c-2.5,0-4.52,2.02-4.52,4.52,0,2.5,2.02,4.52,4.52,4.52s4.52-2.02,4.52-4.52h0c0-2.5-2.02-4.52-4.52-4.52h0"/>
      <path id="Path_101" data-name="Path 101" class="cls-1" d="m32.46,39.5c2.5,0,4.52-2.02,4.52-4.52,0-2.5-2.02-4.52-4.52-4.52-2.5,0-4.52,2.02-4.52,4.52h0c0,2.5,2.02,4.52,4.52,4.52"/>
      <path id="Path_102" data-name="Path 102" class="cls-1" d="m46.28,39.5c2.5,0,4.52-2.02,4.52-4.52,0-2.5-2.02-4.52-4.52-4.52-2.5,0-4.52,2.02-4.52,4.52h0c0,2.5,2.02,4.52,4.52,4.52h0"/>
      <path id="Path_103" data-name="Path 103" class="cls-1" d="m60.1,39.5c2.5,0,4.52-2.02,4.52-4.52,0-2.5-2.02-4.52-4.52-4.52-2.5,0-4.52,2.02-4.52,4.52h0c0,2.5,2.02,4.52,4.52,4.52h0"/>
      <path id="Path_104" data-name="Path 104" class="cls-1" d="m73.93,39.5c2.5,0,4.52-2.02,4.52-4.52,0-2.5-2.02-4.52-4.52-4.52-2.5,0-4.52,2.02-4.52,4.52h0c0,2.5,2.02,4.52,4.52,4.52h0"/>
    </g>
  </g>
</svg>