<?xml version="1.0" encoding="UTF-8"?>
<svg id="Layer_2" data-name="Layer 2" xmlns="http://www.w3.org/2000/svg" viewBox="0 0 95.17 62.76">
  <defs>
    <style>
      .cls-1 {
        fill: #fff;
      }
    </style>
  </defs>
  <g id="Layer_1-2" data-name="Layer 1">
    <path id="Path_67" data-name="Path 67" class="cls-1" d="m26.95,62.76c-.57,0-1.15-.04-1.71-.11-5.17-.69-9.92-4.48-13.03-10.39-6.78-12.9-3.7-29.6,7.32-39.71.65-.59,1.34-1.2,2.08-1.81-9.49-2.78-18.55,1.61-18.66,1.66L0,6.48c.63-.31,14.53-7.09,28.04-.31,5.65-3.46,12.32-6.17,18.59-6.17s13.84,2.71,20.22,6.31c13.59-7.02,27.69-.14,28.32.17l-2.96,5.92c-.11-.05-9.21-4.47-18.7-1.66.76.6,1.47,1.2,2.12,1.8,11.02,10.11,14.1,26.82,7.32,39.71-3.11,5.91-7.86,9.7-13.03,10.39-3.56.42-7.15-.52-10.05-2.62-8.5-5.94-10.4-18.6-9.44-27.64.95-8.92,4.64-16.66,10.31-21.84-4.96-2.4-10.17-3.93-14.12-3.93s-8.34,1.49-12.49,3.68c5.82,5.18,9.63,13.03,10.59,22.1.96,9.04-.94,21.71-9.44,27.64-2.44,1.74-5.35,2.7-8.34,2.73m1.25-48.77c-1.46,1.06-2.87,2.2-4.2,3.42-8.71,7.99-11.26,21.64-5.94,31.76.99,1.89,3.76,6.34,8.05,6.92,1.92.19,3.84-.34,5.39-1.49,5.74-4.01,7.48-13.7,6.65-21.52-.86-8.09-4.56-15.14-9.95-19.09m38.68.06c-5.36,3.98-9.01,10.99-9.86,19.03-.83,7.82.9,17.51,6.65,21.52,1.55,1.14,3.47,1.67,5.39,1.49,4.29-.57,7.06-5.03,8.05-6.92,5.32-10.12,2.77-23.77-5.94-31.76-1.35-1.22-2.78-2.34-4.29-3.36"/>
  </g>
</svg>