<?xml version="1.0" encoding="UTF-8"?>
<svg id="Layer_2" data-name="Layer 2" xmlns="http://www.w3.org/2000/svg" viewBox="0 0 80.29 57.6">
  <defs>
    <style>
      .cls-1 {
        fill: #fff;
      }
    </style>
  </defs>
  <g id="Layer_1-2" data-name="Layer 1">
    <g>
      <path id="Path_74" data-name="Path 74" class="cls-1" d="m16.3,4.96L11.77.42c-15.67,15.64-15.7,41.03-.06,56.7.02.02.04.04.06.06l4.53-4.54c-13.17-13.15-13.18-34.48-.03-47.65.01-.01.02-.02.03-.03"/>
      <path id="Path_75" data-name="Path 75" class="cls-1" d="m68.52.42l-4.53,4.54c13.17,13.15,13.18,34.48.03,47.65-.01.01-.02.02-.03.03l4.53,4.54c15.67-15.64,15.7-41.03.06-56.7-.02-.02-.04-.04-.06-.06"/>
      <path id="Path_76" data-name="Path 76" class="cls-1" d="m60.52,8.42c-11.26-11.24-29.49-11.22-40.73.04-11.24,11.26-11.22,29.49.04,40.73,11.26,11.24,29.49,11.22,40.73-.04,5.39-5.4,8.42-12.72,8.42-20.34,0-7.65-3.04-14.99-8.45-20.39m-3.24,37.52c-9.47,9.45-24.8,9.44-34.25-.03-9.45-9.47-9.44-24.8.03-34.25,9.47-9.45,24.8-9.44,34.25.03,4.53,4.54,7.08,10.7,7.08,17.11,0,6.43-2.55,12.6-7.11,17.14"/>
      <path id="Path_77" data-name="Path 77" class="cls-1" d="m40.15,35.04c2.02,0,3.65-1.63,3.65-3.65h0V14c0-2.02-1.64-3.65-3.66-3.64-2.01,0-3.64,1.63-3.64,3.64v17.39c0,2.02,1.63,3.65,3.65,3.65h0"/>
      <path id="Path_78" data-name="Path 78" class="cls-1" d="m40.15,37.17c-2.45,0-4.43,1.98-4.43,4.43s1.98,4.43,4.43,4.43,4.43-1.98,4.43-4.43h0c0-2.45-1.98-4.43-4.43-4.43h0"/>
    </g>
  </g>
</svg>