<?xml version="1.0" encoding="UTF-8"?>
<svg id="Layer_2" data-name="Layer 2" xmlns="http://www.w3.org/2000/svg" viewBox="0 0 84.5 61.85">
  <defs>
    <style>
      .cls-1 {
        fill: #fff;
      }
    </style>
  </defs>
  <g id="Layer_1-2" data-name="Layer 1">
    <g>
      <path id="Path_70" data-name="Path 70" class="cls-1" d="m84.5,61.85c-3.44,0-5.22-1.81-6.64-3.27-1.21-1.24-2.08-2.13-3.92-2.13s-2.71.89-3.92,2.13c-1.42,1.46-3.2,3.27-6.64,3.27s-5.22-1.81-6.64-3.27c-1.21-1.23-2.08-2.13-3.92-2.13s-2.71.89-3.92,2.13c-1.43,1.46-3.2,3.27-6.64,3.27s-5.22-1.81-6.64-3.27c-1.21-1.23-2.08-2.13-3.92-2.13s-2.71.89-3.92,2.13c-1.42,1.46-3.2,3.27-6.64,3.27s-5.21-1.81-6.64-3.27c-1.21-1.23-2.08-2.13-3.92-2.13s-2.71.89-3.92,2.13c-1.42,1.46-3.2,3.27-6.64,3.27v-3.81c1.84,0,2.71-.89,3.92-2.13,1.43-1.46,3.2-3.27,6.64-3.27s5.22,1.81,6.64,3.27c1.21,1.23,2.08,2.13,3.92,2.13s2.71-.89,3.92-2.13c1.43-1.46,3.2-3.27,6.64-3.27s5.22,1.81,6.64,3.27c1.21,1.23,2.08,2.13,3.92,2.13s2.71-.89,3.92-2.13c1.43-1.46,3.2-3.27,6.64-3.27s5.22,1.81,6.64,3.27c1.21,1.23,2.08,2.13,3.92,2.13s2.71-.89,3.92-2.13c1.43-1.46,3.2-3.27,6.64-3.27s5.22,1.81,6.64,3.27c1.21,1.23,2.08,2.13,3.92,2.13v3.81Z"/>
      <path id="Path_71" data-name="Path 71" class="cls-1" d="m34.51,39.57c-.91-.33-1.86-.5-2.83-.49-3.44,0-5.22,1.81-6.64,3.27-1.21,1.24-2.08,2.13-3.92,2.13s-2.71-.89-3.92-2.13c-1.42-1.46-3.2-3.27-6.64-3.27s-5.21,1.81-6.64,3.27c-1.21,1.24-2.08,2.13-3.92,2.13v3.81c3.44,0,5.22-1.81,6.64-3.27,1.21-1.24,2.08-2.13,3.92-2.13s2.71.89,3.92,2.13c1.43,1.46,3.2,3.27,6.64,3.27s5.22-1.81,6.64-3.27c1.21-1.24,2.08-2.13,3.92-2.13.58-.01,1.16.1,1.69.33.11-1.29.5-2.53,1.14-3.65"/>
      <path id="Path_72" data-name="Path 72" class="cls-1" d="m80.58,42.36c-1.43-1.46-3.2-3.27-6.64-3.27s-5.22,1.81-6.64,3.27c-1.21,1.24-2.08,2.13-3.92,2.13s-2.71-.89-3.92-2.13c-1.43-1.46-3.2-3.27-6.64-3.27-.98-.01-1.95.16-2.87.5.64,1.12,1.02,2.37,1.13,3.66.55-.24,1.14-.36,1.74-.35,1.84,0,2.71.89,3.92,2.12,1.43,1.46,3.2,3.27,6.64,3.27s5.22-1.81,6.64-3.27c1.21-1.23,2.08-2.12,3.92-2.12s2.71.89,3.92,2.13c1.43,1.46,3.2,3.27,6.64,3.27v-3.81c-1.84,0-2.71-.89-3.92-2.13"/>
      <path id="Path_73" data-name="Path 73" class="cls-1" d="m50.08,9.44v-3.33h-5.48V0h-4.76v38.28c-3.15,1.31-4.64,4.93-3.33,8.09,1.31,3.15,4.93,4.64,8.09,3.33s4.64-4.93,3.33-8.09c-.63-1.5-1.82-2.7-3.33-3.33v-8.35h5.48v-3.33h-5.48v-6.92h5.48v-3.33h-5.48v-6.91h5.48Z"/>
    </g>
  </g>
</svg>