<?xml version="1.0" encoding="UTF-8"?>
<svg id="Layer_2" data-name="Layer 2" xmlns="http://www.w3.org/2000/svg" viewBox="0 0 80.29 57.6">
  <defs>
    <style>
      .cls-1 {
        fill: #fff;
      }
    </style>
  </defs>
  <g id="Layer_1-2" data-name="Layer 1">
    <g>
      <path id="Path_79" data-name="Path 79" class="cls-1" d="m16.3,4.96L11.77.42c-15.67,15.64-15.7,41.03-.06,56.7.02.02.04.04.06.06l4.53-4.54c-13.17-13.15-13.18-34.48-.03-47.65.01-.01.02-.02.03-.03"/>
      <path id="Path_80" data-name="Path 80" class="cls-1" d="m68.52.42l-4.53,4.54c13.17,13.15,13.18,34.48.03,47.65-.01.01-.02.02-.03.03l4.53,4.54c15.67-15.64,15.7-41.03.06-56.7-.02-.02-.04-.04-.06-.06"/>
      <path id="Path_81" data-name="Path 81" class="cls-1" d="m60.52,8.42c-11.26-11.24-29.49-11.22-40.73.04-11.24,11.26-11.22,29.49.04,40.73,11.26,11.24,29.49,11.22,40.73-.04,5.39-5.4,8.42-12.72,8.42-20.34,0-7.65-3.04-14.99-8.46-20.39m-3.24,37.52c-9.47,9.45-24.8,9.44-34.25-.03-9.45-9.47-9.44-24.8.03-34.25,9.47-9.45,24.8-9.44,34.25.03,4.53,4.54,7.08,10.7,7.08,17.11,0,6.43-2.55,12.6-7.11,17.14"/>
      <path id="Path_82" data-name="Path 82" class="cls-1" d="m30.58,33.16l-.61-1.61h-5.22l-.61,1.65c-.15.46-.36.89-.61,1.3-.21.24-.52.37-.83.34-.33,0-.64-.13-.87-.36-.24-.21-.37-.5-.38-.81,0-.18.03-.37.09-.54.06-.19.16-.45.29-.78l3.28-8.33c.09-.24.21-.53.34-.86.11-.29.25-.57.42-.84.15-.22.35-.41.59-.54.57-.27,1.23-.27,1.8,0,.23.13.43.31.59.53.15.22.28.45.38.7.1.25.23.58.39.99l3.35,8.28c.21.43.34.9.39,1.38,0,.31-.14.61-.37.82-.24.24-.56.38-.9.37-.18,0-.36-.03-.53-.11-.14-.07-.27-.17-.37-.3-.13-.18-.24-.37-.32-.58-.11-.26-.21-.49-.29-.69m-5.15-3.56h3.84l-1.93-5.3-1.9,5.3Z"/>
      <path id="Path_83" data-name="Path 83" class="cls-1" d="m40.74,34.61h-3.92c-.44.04-.88-.09-1.21-.38-.27-.34-.4-.78-.36-1.21v-9.65c-.04-.44.09-.88.37-1.22.34-.28.77-.41,1.2-.37h4.16c.53,0,1.07.03,1.59.11.43.07.84.22,1.21.44.3.18.58.41.8.69.23.27.41.58.53.92.12.34.18.7.18,1.06.02,1.25-.75,2.38-1.93,2.82,1.49.29,2.56,1.61,2.53,3.13,0,.69-.18,1.36-.55,1.94-.36.56-.88,1.01-1.49,1.27-.43.17-.89.29-1.35.35-.59.07-1.18.1-1.78.1m-2.9-10.88v3.32h2.38c.51.02,1.01-.04,1.5-.18.35-.12.64-.37.81-.7.15-.25.22-.53.22-.82.06-.53-.21-1.05-.69-1.29-.67-.25-1.39-.36-2.11-.32h-2.11Zm2.71,5.18h-2.71v3.75h2.79c1.76,0,2.64-.63,2.64-1.9.04-.56-.22-1.1-.68-1.41-.63-.33-1.33-.48-2.04-.44"/>
      <path id="Path_84" data-name="Path 84" class="cls-1" d="m57.91,30.76c0,.74-.2,1.47-.6,2.09-.43.64-1.04,1.15-1.76,1.45-.87.37-1.8.55-2.74.53-1.09.04-2.17-.21-3.14-.72-.58-.34-1.07-.81-1.42-1.38-.34-.5-.53-1.08-.55-1.68,0-.63.5-1.14,1.13-1.15.01,0,.02,0,.04,0,.26,0,.51.09.7.26.22.22.39.49.49.78.14.36.32.7.53,1.03.21.29.48.52.8.68.42.19.89.29,1.36.27.67.03,1.33-.16,1.88-.54.45-.3.72-.8.72-1.34.02-.38-.12-.76-.39-1.04-.28-.28-.63-.49-1.01-.61-.41-.14-.96-.29-1.65-.45-.8-.17-1.57-.43-2.32-.76-.59-.26-1.1-.67-1.48-1.18-.38-.54-.57-1.2-.55-1.86-.01-.67.19-1.33.58-1.88.42-.58,1-1.02,1.67-1.27.82-.31,1.69-.46,2.57-.44.69-.01,1.38.08,2.04.29.52.17,1.01.43,1.43.78.34.28.63.63.83,1.02.17.32.26.68.26,1.04,0,.31-.12.61-.33.84-.2.24-.5.38-.82.37-.25.02-.49-.06-.68-.22-.2-.22-.37-.46-.5-.73-.2-.43-.48-.82-.84-1.13-.46-.31-1.02-.45-1.58-.41-.57-.03-1.14.13-1.62.44-.37.23-.61.63-.62,1.06,0,.24.07.47.21.67.16.2.35.36.58.48.24.13.49.24.74.32.25.08.67.19,1.24.33.66.15,1.32.34,1.97.56.53.18,1.04.43,1.5.74.41.29.74.67.96,1.11.25.51.36,1.07.35,1.64"/>
    </g>
  </g>
</svg>