<?xml version="1.0" encoding="UTF-8"?>
<svg id="Layer_2" data-name="Layer 2" xmlns="http://www.w3.org/2000/svg" viewBox="0 0 94.45 34.74">
  <defs>
    <style>
      .cls-1 {
        fill: #fff;
      }
    </style>
  </defs>
  <g id="Layer_1-2" data-name="Layer 1">
    <g>
      <path id="Path_68" data-name="Path 68" class="cls-1" d="m94.45,20.85c-.13.28-.27.57-.41.85-.75,1.68-2.67,2.49-4.4,1.87-1.79-.66-2.75-2.59-2.21-4.41.92-2.74,2.11-5.38,3.18-8.05h.43c1.13,2.73,2.27,5.45,3.41,8.17v1.58Z"/>
      <path id="Path_69" data-name="Path 69" class="cls-1" d="m92.15,4.94c-.87,1.45-1.72,2.85-2.59,4.31l-4.96-3.4-10.59,9.12c-7.43,6.4-14.86,12.79-22.29,19.18-.39.33-.88.53-1.39.55-11.07.03-22.13.04-33.2.02-.27,0-.54-.03-.78-.05-.05-.12-.1-.18-.1-.23.33-1.84-.6-3.12-1.59-4.46C9.93,23.5,5.25,16.97.55,10.45c-.17-.23-.33-.48-.55-.8.62-.7,1.24-1.41,1.87-2.11,1.7-1.91,3.42-3.79,5.09-5.72.43-.5.73-.58,1.3-.21,2.85,1.81,5.73,3.58,8.62,5.33.36.23.77.36,1.2.39,4.58.03,9.16.02,13.74.01.21,0,.42-.04.69-.06v-1.79h-5.7V.33h16.28v5.09h-5.66v1.85c.33.02.65.05.97.05,3.81,0,7.62-.02,11.44.03.67.03,1.31.21,1.89.54,1.28.71,2.51,1.52,3.73,2.35.44.34,1.04.4,1.54.16,8.93-3.42,17.87-6.81,26.8-10.24.58-.29,1.27-.21,1.77.2,2.14,1.54,4.32,3.01,6.56,4.57m-20.66,5.61l-.06-.17-.85.32c-4.68,1.78-9.37,3.56-14.05,5.37-.5.24-1.1.18-1.54-.16-1.54-1.02-3.1-2.02-4.68-2.96-.47-.28-1-.44-1.55-.46-8.89-.03-17.77-.03-26.66-.02-.33,0-.66.03-1.02.05v17.01c.28.02.51.06.75.06,8.98,0,17.96,0,26.94-.02.45-.03.88-.21,1.22-.51,3.66-3.12,7.3-6.26,10.94-9.4,3.52-3.03,7.04-6.07,10.56-9.1m-55.45,12.97l.19-.08c0-3.52,0-7.03-.02-10.55-.03-.27-.18-.51-.4-.67-2.3-1.45-4.61-2.88-6.94-4.28-.22-.11-.49-.1-.7.03-.65.64-1.24,1.34-1.86,2.04l9.73,13.51"/>
    </g>
  </g>
</svg>