<?xml version="1.0" encoding="UTF-8"?>
<svg id="Layer_2" data-name="Layer 2" xmlns="http://www.w3.org/2000/svg" viewBox="0 0 80.29 57.6">
  <defs>
    <style>
      .cls-1 {
        fill: #fff;
      }
    </style>
  </defs>
  <g id="Layer_1-2" data-name="Layer 1">
    <g>
      <path id="Path_85" data-name="Path 85" class="cls-1" d="m16.31,4.96L11.77.42c-15.67,15.64-15.7,41.03-.06,56.7.02.02.04.04.06.06l4.53-4.54c-13.17-13.15-13.18-34.48-.03-47.65.01-.01.02-.02.03-.03"/>
      <path id="Path_86" data-name="Path 86" class="cls-1" d="m68.52.42l-4.53,4.54c13.17,13.15,13.18,34.48.03,47.65-.01.01-.02.02-.03.03l4.53,4.54c15.67-15.64,15.7-41.03.06-56.7-.02-.02-.04-.04-.06-.06"/>
      <path id="Path_87" data-name="Path 87" class="cls-1" d="m60.52,8.42c-11.26-11.24-29.49-11.22-40.73.04-11.24,11.26-11.22,29.49.04,40.73,11.26,11.24,29.49,11.22,40.73-.04,5.39-5.4,8.42-12.72,8.42-20.34,0-7.65-3.04-14.99-8.45-20.39m-3.24,37.52c-9.47,9.45-24.8,9.44-34.25-.03-9.45-9.47-9.44-24.8.03-34.25,9.47-9.45,24.8-9.44,34.25.03,4.53,4.54,7.08,10.7,7.08,17.11,0,6.43-2.55,12.6-7.11,17.14"/>
      <path id="Path_88" data-name="Path 88" class="cls-1" d="m32.31,24.89h-5.18v2.79h4.77c.28-.02.56.06.79.24.17.16.27.39.26.62,0,.24-.08.47-.26.63-.22.18-.51.27-.79.24h-4.77v3.23h5.36c.29-.02.59.07.82.25.19.17.29.42.28.67,0,.25-.09.49-.28.65-.23.18-.52.27-.82.25h-6.25c-.65.13-1.28-.3-1.41-.96-.03-.15-.03-.3,0-.45v-8.54c0-.28.04-.55.15-.81.09-.2.26-.37.46-.46.25-.1.53-.15.8-.14h6.08c.29-.02.58.06.82.24.18.16.28.4.27.64,0,.24-.09.48-.27.65-.23.18-.52.27-.82.24"/>
      <path id="Path_89" data-name="Path 89" class="cls-1" d="m40.27,34.48h-3.47c-.39.04-.78-.08-1.07-.34-.24-.3-.36-.69-.32-1.07v-8.54c-.04-.39.08-.78.33-1.08.3-.25.68-.37,1.07-.33h3.68c.47,0,.94.03,1.41.1.38.06.74.19,1.07.39.27.16.51.37.71.61.2.24.36.52.47.81.11.3.16.62.16.94.02,1.11-.66,2.11-1.7,2.49,1.32.26,2.26,1.43,2.24,2.77,0,.61-.16,1.2-.49,1.72-.32.5-.78.89-1.32,1.13-.38.15-.78.26-1.19.31-.52.06-1.05.09-1.57.09m-2.57-9.63v2.94h2.11c.45.02.9-.04,1.33-.16.31-.11.57-.33.72-.62.13-.22.2-.47.19-.73.06-.47-.19-.93-.61-1.14-.6-.22-1.23-.32-1.87-.28h-1.87Zm2.39,4.59h-2.4v3.32h2.47c1.56,0,2.33-.56,2.33-1.68.04-.49-.19-.97-.6-1.25-.55-.29-1.18-.43-1.8-.39"/>
      <path id="Path_90" data-name="Path 90" class="cls-1" d="m55.46,31.07c0,.66-.18,1.3-.53,1.85-.38.57-.92,1.02-1.55,1.29-.77.33-1.59.49-2.43.47-.96.04-1.92-.18-2.77-.64-.51-.3-.94-.72-1.26-1.22-.3-.44-.47-.95-.48-1.48,0-.56.44-1.01,1-1.02.01,0,.02,0,.03,0,.23,0,.45.08.62.23.19.19.34.43.43.69.12.32.28.62.47.91.18.26.43.46.71.6.38.17.79.25,1.2.24.59.03,1.18-.14,1.66-.48.4-.27.64-.71.64-1.19.01-.34-.11-.67-.34-.92-.25-.25-.56-.43-.89-.54-.36-.12-.85-.25-1.46-.39-.7-.15-1.39-.38-2.05-.67-.52-.23-.97-.59-1.31-1.05-.33-.48-.5-1.06-.48-1.65,0-.6.17-1.18.51-1.67.37-.51.89-.9,1.48-1.12.73-.27,1.5-.41,2.28-.39.61-.01,1.22.07,1.81.26.46.15.89.38,1.27.69.3.25.55.55.73.9.15.28.23.6.23.92,0,.27-.1.54-.29.74-.18.21-.45.33-.72.33-.22.01-.43-.06-.6-.2-.18-.19-.33-.41-.45-.65-.17-.38-.43-.72-.74-1-.41-.27-.9-.4-1.39-.36-.51-.02-1.01.11-1.44.39-.33.2-.54.56-.55.94,0,.21.06.42.19.59.14.18.31.32.51.43.21.11.43.21.66.28.22.07.59.17,1.1.29.59.13,1.17.3,1.74.49.47.16.92.38,1.32.66.36.25.65.59.85.98.22.45.32.95.31,1.45"/>
    </g>
  </g>
</svg>