<?xml version="1.0" encoding="UTF-8"?>
<svg id="Layer_2" data-name="Layer 2" xmlns="http://www.w3.org/2000/svg" viewBox="0 0 81.32 57.55">
  <defs>
    <style>
      .cls-1 {
        fill: #fff;
      }
    </style>
  </defs>
  <g id="Layer_1-2" data-name="Layer 1">
    <g>
      <path id="Path_60" data-name="Path 60" class="cls-1" d="m45.69.05c8.2.48,17.67,2.72,25.83,8.89,13.14,9.93,13.08,24.62-.24,34.33-9.05,6.6-19.56,8.73-30.51,8.9-1.1.02-2.87-1.48-3.25-2.63-3.14-9.11-4.39-18.77-3.65-28.39.42-4.78.64-9.6,1.49-14.31C36.51.38,37.53-.21,45.68.05m-3.65,47.26c2.14-.18,4.02-.26,5.87-.52,7.77-1.11,15.13-3.34,21.4-8.3,9.05-7.17,9.44-16.71.75-24.25-7.79-6.76-17.26-9.12-27.35-9.26-1.09.26-1.98,1.06-2.34,2.13-.78,4.53-1.33,9.1-1.64,13.68-.65,8.97.47,17.98,3.32,26.52"/>
      <path id="Path_61" data-name="Path 61" class="cls-1" d="m13.24,39.44c-3.42,1.22-6.85,2.39-10.27,3.66-1.67.62-2.81.18-2.87-1.75-.11-1.77,1.03-3.38,2.74-3.88,7.02-2.47,14.04-4.96,21.06-7.47,1.66-.59,2.81-.15,2.74,1.93,0,1.76-1.17,3.31-2.88,3.78-3.51,1.21-7.02,2.48-10.53,3.73"/>
      <path id="Path_62" data-name="Path 62" class="cls-1" d="m13.49,47.89c3.34-1.18,6.67-2.31,10.01-3.58,1.72-.65,3.07-.5,3.15,1.65.1,2.52-1.49,3.46-3.24,4.07-6.76,2.37-13.52,4.78-20.28,7.21-1.74.63-3.08.43-3.02-1.82,0-1.87,1.28-3.49,3.1-3.92,3.42-1.11,6.85-2.4,10.27-3.62"/>
      <path id="Path_63" data-name="Path 63" class="cls-1" d="m13.23,11.13c-3.41,1.21-6.82,2.38-10.23,3.65-1.8.67-2.95.14-2.89-2.01.03-1.75,1.24-3.26,2.93-3.69,6.91-2.41,13.81-4.86,20.72-7.35,1.59-.57,2.86-.41,2.89,1.65.11,1.87-1.12,3.56-2.93,4.04-3.5,1.19-6.99,2.47-10.49,3.71"/>
      <path id="Path_64" data-name="Path 64" class="cls-1" d="m13.56,19.53c3.59-1.27,7.18-2.53,10.77-3.83,1.39-.51,2.38-.58,2.4,1.49.21,1.63-.87,3.15-2.48,3.48-7.27,2.54-14.53,5.12-21.8,7.74-1.45.53-2.35.42-2.41-1.52-.23-1.63.87-3.16,2.49-3.46,3.68-1.24,7.35-2.59,11.03-3.9"/>
    </g>
  </g>
</svg>