<?xml version="1.0" encoding="UTF-8"?>
<svg id="Layer_2" data-name="Layer 2" xmlns="http://www.w3.org/2000/svg" viewBox="0 0 34.51 34.52">
  <defs>
    <style>
      .cls-1 {
        fill: #fff;
      }
    </style>
  </defs>
  <g id="Layer_1-2" data-name="Layer 1">
    <g id="instagram">
      <path id="Path_29" data-name="Path 29" class="cls-1" d="m34.43,10.15c-.03-1.43-.3-2.85-.8-4.19-.9-2.32-2.73-4.15-5.06-5.05-1.34-.5-2.76-.77-4.19-.8-1.85-.09-2.44-.11-7.12-.11s-5.27.02-7.12.1c-1.43.03-2.85.3-4.19.8-1.16.43-2.2,1.12-3.06,2-.88.86-1.56,1.91-1.99,3.06C.41,7.3.14,8.71.11,10.15c-.09,1.85-.11,2.43-.11,7.12s.02,5.27.1,7.12c.03,1.43.3,2.85.8,4.19.9,2.32,2.73,4.15,5.05,5.05,1.34.5,2.76.77,4.19.8,1.84.08,2.43.1,7.12.1s5.27-.02,7.12-.1c1.43-.03,2.85-.3,4.19-.8,2.32-.9,4.15-2.73,5.05-5.05.5-1.34.77-2.76.8-4.19.08-1.84.1-2.43.1-7.12s0-5.27-.09-7.12h0Zm-3.11,14.1c-.01,1.09-.21,2.18-.59,3.2-.58,1.51-1.77,2.7-3.28,3.28-1.02.38-2.11.58-3.2.59-1.82.08-2.37.1-6.97.1s-5.16-.02-6.98-.1c-1.09-.01-2.18-.21-3.2-.59-.75-.27-1.43-.72-1.98-1.29-.57-.56-1.02-1.23-1.29-1.98-.38-1.02-.58-2.11-.59-3.2-.08-1.82-.1-2.37-.1-6.98s.02-5.16.1-6.97c.01-1.09.21-2.18.59-3.2.28-.75.72-1.43,1.3-1.98.55-.57,1.23-1.02,1.98-1.3,1.02-.38,2.11-.58,3.2-.59,1.82-.08,2.37-.1,6.97-.1s5.16.02,6.98.1c1.09.01,2.18.21,3.2.59.75.27,1.43.71,1.99,1.29.57.56,1.01,1.23,1.29,1.98.38,1.02.58,2.11.59,3.2.08,1.82.1,2.37.1,6.97s-.02,5.15-.1,6.97h0Z"/>
      <path id="Path_30" data-name="Path 30" class="cls-1" d="m17.27,8.4c-4.9,0-8.87,3.97-8.87,8.87,0,4.9,3.97,8.87,8.87,8.87,4.9,0,8.87-3.97,8.87-8.87h0c0-4.9-3.97-8.87-8.87-8.87Zm0,14.62c-3.18,0-5.75-2.58-5.75-5.75s2.58-5.75,5.75-5.75c3.18,0,5.75,2.58,5.75,5.75h0c0,3.18-2.58,5.75-5.75,5.75Z"/>
      <path id="Path_31" data-name="Path 31" class="cls-1" d="m28.56,8.05c0,1.14-.93,2.07-2.07,2.07s-2.07-.93-2.07-2.07c0-1.14.93-2.07,2.07-2.07,1.14,0,2.07.93,2.07,2.07h0Z"/>
    </g>
  </g>
</svg>