<?xml version="1.0" encoding="UTF-8"?>
<svg id="Layer_2" data-name="Layer 2" xmlns="http://www.w3.org/2000/svg" viewBox="0 0 30.34 34.53">
  <defs>
    <style>
      .cls-1 {
        fill: #fff;
      }
    </style>
  </defs>
  <g id="Layer_1-2" data-name="Layer 1">
    <g id="tik-tok">
      <path id="Path_32" data-name="Path 32" class="cls-1" d="m30.32,8.65c-1.9,0-3.74-.61-5.26-1.76-1.71-1.29-2.89-3.16-3.31-5.26-.11-.54-.16-1.08-.17-1.63h-5.64v23.85c0,2.82-2.28,5.12-5.11,5.12-2.82,0-5.12-2.28-5.12-5.1s2.28-5.12,5.1-5.12c.55,0,1.09.09,1.62.26v-5.73c-.54-.08-1.08-.12-1.63-.12-3.1-.01-6.06,1.31-8.12,3.63-3.76,4.22-3.55,10.65.48,14.61.32.32.66.61,1.02.89,1.9,1.46,4.23,2.25,6.63,2.24.54,0,1.09-.04,1.63-.12,2.28-.33,4.39-1.39,6.02-3.01,2.02-1.98,3.16-4.68,3.17-7.51l-.03-12.6c2.5,1.93,5.58,2.98,8.74,2.97v-5.62h-.02,0Z"/>
    </g>
  </g>
</svg>