<?xml version="1.0" encoding="UTF-8"?>
<svg id="Layer_2" data-name="Layer 2" xmlns="http://www.w3.org/2000/svg" viewBox="0 0 40.7 42.06">
  <defs>
    <style>
      .cls-1 {
        fill: #fff;
      }
    </style>
  </defs>
  <g id="Layer_1-2" data-name="Layer 1">
    <g id="_12.viber" data-name=" 12.viber">
      <g id="icon">
        <path id="Path_16" data-name="Path 16" class="cls-1" d="m39.79,10.11v-.05c-.58-2.01-1.68-3.84-3.18-5.31-1.7-1.84-3.88-3.16-6.3-3.81h-.05C23.72-.31,17-.31,10.45.94h-.05C6.32,1.83,1.9,6.09.91,10.06v.05C-.3,15.61-.3,21.32.91,26.82v.05c.7,2.83,3.15,5.81,5.98,7.61.92.6,1.93,1.07,2.98,1.38v4.43c0,.98.81,1.78,1.79,1.78.48,0,.94-.2,1.27-.54l4.49-4.67c.97.05,1.95.08,2.92.08,3.33,0,6.65-.32,9.91-.94h.05c4.07-.89,8.5-5.15,9.48-9.12v-.05c1.22-5.51,1.23-11.21.02-16.72h0Zm-3.55,15.9c-.66,2.59-4.02,5.82-6.69,6.41-3.47.67-7.01.95-10.54.86-.07,0-.14.02-.18.08l-3.28,3.37-3.49,3.58c-.15.16-.41.17-.57.01-.08-.08-.13-.18-.13-.29v-7.35c0-.12-.09-.23-.21-.25-.56-.13-1.1-.34-1.6-.61-2.27-1.21-4.56-3.7-5.09-5.8-1.09-4.98-1.09-10.13,0-15.11.65-2.58,4.03-5.8,6.69-6.39,6.08-1.16,12.33-1.16,18.41,0,1.72.51,3.27,1.49,4.47,2.83,1.02.99,1.78,2.22,2.22,3.58,1.09,4.97,1.09,10.12,0,15.09h0Z"/>
        <path id="Path_17" data-name="Path 17" class="cls-1" d="m29.64,26.39c-.5,1.13-1.35,2.07-2.43,2.68-.34.14-.69.26-1.05.33-.39-.1-.77-.22-1.15-.36-2.9-1.13-5.6-2.71-8-4.7-.71-.61-1.38-1.26-2-1.96-1.53-1.76-2.82-3.73-3.83-5.84-.49-1-.9-2.03-1.32-3.06-.24-.95.05-1.95.76-2.61.57-.65,1.27-1.17,2.05-1.53.57-.29,1.26-.13,1.65.38.98,1.1,1.84,2.29,2.57,3.57.48.77.27,1.78-.48,2.3-.19.13-.37.28-.55.44-.16.12-.3.27-.41.44-.19.32-.23.71-.09,1.06.64,1.96,1.88,3.68,3.54,4.91.57.4,1.18.74,1.82,1,.42.23.89.34,1.37.34.83-.1,1.11-1.02,1.69-1.5.55-.45,1.33-.49,1.91-.09.62.38,1.22.82,1.81,1.24.59.4,1.16.84,1.7,1.3.53.38.71,1.08.43,1.67Z"/>
        <path id="Path_21" data-name="Path 21" class="cls-1" d="m21.45,8.05h-.49c.16,0,.32,0,.49,0Z"/>
        <path id="Path_22" data-name="Path 22" class="cls-1" d="m29.91,19.52c-.38,0-.57-.32-.6-.68-.05-.7-.09-1.4-.18-2.1-.17-1.17-.57-2.3-1.2-3.31-1.3-2.12-3.44-3.59-5.89-4.05-.55-.1-1.11-.12-1.67-.18-.35-.04-.82-.06-.89-.5-.04-.33.19-.63.51-.68.03,0,.05,0,.08,0,.09,0,.18,0,.28,0,3.4.03,6.55,1.75,8.42,4.59.72,1.13,1.22,2.39,1.45,3.71.14.83.2,1.68.26,2.52.05.32-.17.62-.49.67-.02,0-.05,0-.07,0h0Z"/>
        <path id="Path_23" data-name="Path 23" class="cls-1" d="m27.84,17.73c0,.11-.02.23-.05.34-.09.3-.4.47-.7.38-.16-.05-.29-.17-.36-.32-.04-.15-.06-.31-.06-.47,0-.86-.16-1.7-.5-2.49-.08-.17-.16-.34-.26-.5-.55-.94-1.36-1.71-2.34-2.19-.59-.28-1.22-.47-1.86-.57-.28-.05-.57-.07-.85-.11-.3-.01-.53-.27-.51-.56,0-.01,0-.02,0-.04,0-.29.24-.53.53-.53.02,0,.04,0,.06,0,1.12.04,2.22.33,3.22.84,1.22.62,2.22,1.6,2.85,2.82.35.71.59,1.47.7,2.26.02.1.04.21.05.31.02.23.03.46.05.74,0,.03.01.06.01.11Z"/>
        <path id="Path_24" data-name="Path 24" class="cls-1" d="m25.22,17.2c-.04.2-.21.35-.41.38h-.08c-.26.02-.49-.14-.58-.38-.02-.06-.04-.13-.05-.2-.02-.26-.06-.51-.11-.76-.11-.51-.4-.96-.82-1.28-.2-.14-.42-.25-.66-.32-.3-.09-.62-.07-.92-.14-.31-.05-.51-.35-.46-.65.06-.29.33-.5.62-.47,1.69-.05,3.16,1.17,3.4,2.85.03.17.06.35.07.53.02.15.02.3,0,.46h0Z"/>
      </g>
    </g>
  </g>
</svg>