<?xml version="1.0" encoding="UTF-8"?>
<svg id="Layer_2" data-name="Layer 2" xmlns="http://www.w3.org/2000/svg" viewBox="0 0 41.28 41.62">
  <defs>
    <style>
      .cls-1 {
        fill: #fff;
      }
    </style>
  </defs>
  <g id="Layer_1-2" data-name="Layer 1">
    <g id="_09.whatsapp" data-name=" 09.whatsapp">
      <g id="icon-2">
        <path id="Path_25" data-name="Path 25" class="cls-1" d="m35.33,6.12C27.3-1.98,14.23-2.05,6.12,5.98-.26,12.29-1.83,22.01,2.24,30.01L.05,40.65c-.05.21,0,.44.12.62.19.28.52.41.85.33l10.43-2.47c10.21,5.07,22.6.91,27.68-9.31,3.92-7.9,2.4-17.42-3.8-23.69h0Zm-3.25,25.95c-4.92,4.9-12.41,6.12-18.62,3.03l-1.46-.72-6.39,1.51.02-.08,1.33-6.43-.72-1.4c-4.05-7.96-.89-17.69,7.06-21.75,6.24-3.18,13.82-1.98,18.78,2.98.03.03.05.06.08.08,6.23,6.33,6.2,16.5-.08,22.78Z"/>
        <path id="Path_26" data-name="Path 26" class="cls-1" d="m31.51,27.35c-.78,1.23-2.02,2.74-3.58,3.12-2.72.66-6.91.02-12.11-4.83l-.06-.06c-4.58-4.24-5.76-7.77-5.48-10.57.16-1.59,1.48-3.03,2.6-3.97.62-.53,1.56-.46,2.1.17.09.11.17.23.23.37l1.68,3.78c.22.5.15,1.08-.18,1.51l-.85,1.11c-.37.47-.42,1.12-.12,1.63.81,1.19,1.78,2.27,2.89,3.21,1.19,1.15,2.53,2.11,4,2.86.55.22,1.18.09,1.59-.33l.99-1c.39-.38.95-.53,1.48-.38l4,1.14c.8.25,1.25,1.09,1,1.89-.04.12-.09.24-.16.35h0Z"/>
      </g>
    </g>
  </g>
</svg>