<?xml version="1.0" encoding="UTF-8"?>
<svg id="Layer_2" data-name="Layer 2" xmlns="http://www.w3.org/2000/svg" viewBox="0 0 240.52 228.44">
  <defs>
    <style>
      .cls-1 {
        fill: #d70000;
      }
    </style>
  </defs>
  <g id="Layer_1-2">
    <g>
      <path class="cls-1" d="m163.08,122.73c4.07,5.23,6.11,11.21,6.11,17.93,0,9.69-3.39,17.38-10.16,23.05-6.77,5.68-16.22,8.51-28.34,8.51h-54.03V56.22h52.22c11.79,0,21.01,2.7,27.68,8.1,6.66,5.4,10,12.72,10,21.98,0,6.83-1.79,12.5-5.37,17.02-3.58,4.52-8.34,7.66-14.29,9.42,6.72,1.43,12.12,4.77,16.19,10Zm-58.17-19.58h18.51c4.63,0,8.18-1.02,10.66-3.06,2.48-2.04,3.72-5.04,3.72-9.01s-1.24-6.99-3.72-9.09c-2.48-2.09-6.03-3.14-10.66-3.14h-18.51v24.29Zm31.81,43.05c2.59-2.15,3.88-5.26,3.88-9.34s-1.35-7.27-4.05-9.58c-2.7-2.31-6.42-3.47-11.15-3.47h-20.49v25.61h20.82c4.74,0,8.4-1.07,10.99-3.22Z"/>
      <path class="cls-1" d="m223.24,228.44H17.28c-9.53,0-17.28-7.75-17.28-17.28V17.28C0,7.75,7.75,0,17.28,0h205.96c9.53,0,17.28,7.75,17.28,17.28v193.89c0,9.53-7.75,17.28-17.28,17.28ZM29.55,21.1c-4.26,0-7.73,3.47-7.73,7.73v170.78c0,4.26,3.47,7.73,7.73,7.73h181.41c4.26,0,7.73-3.47,7.73-7.73V28.83c0-4.26-3.47-7.73-7.73-7.73H29.55Z"/>
    </g>
  </g>
</svg>