<svg xmlns="http://www.w3.org/2000/svg" width="98.634" height="40.891"><g data-name="Group 1" clip-path="url(&quot;#a&quot;)"><path d="M19.481 16.669c.919 1.18 1.378 2.527 1.378 4.041 0 2.186-.763 3.918-2.29 5.196-1.528 1.28-3.657 1.919-6.389 1.919H0V1.676h11.77c2.657 0 4.737.609 6.24 1.825 1.502 1.217 2.253 2.869 2.253 4.954 0 1.54-.404 2.82-1.21 3.837-.808 1.019-1.881 1.726-3.222 2.123 1.514.323 2.731 1.075 3.65 2.254M6.37 12.255h4.171c1.043 0 1.844-.23 2.403-.69.559-.458.838-1.135.838-2.03 0-.893-.28-1.576-.838-2.048-.559-.471-1.36-.708-2.403-.708H6.37v5.476Zm7.17 9.703c.583-.484.875-1.185.875-2.104s-.304-1.64-.912-2.16c-.61-.522-1.447-.783-2.515-.783H6.37v5.774h4.693c1.067 0 1.893-.243 2.477-.727" fill="#fff" fill-rule="evenodd" data-name="Path 1"/><path d="M30.153 26.372c-2.049-1.142-3.676-2.738-4.88-4.786-1.205-2.049-1.806-4.352-1.806-6.91 0-2.557.601-4.855 1.806-6.891a12.851 12.851 0 0 1 4.88-4.768c2.049-1.142 4.302-1.713 6.76-1.713 2.459 0 4.712.571 6.761 1.713a12.586 12.586 0 0 1 4.842 4.768c1.18 2.036 1.77 4.334 1.77 6.891 0 2.558-.596 4.861-1.788 6.91-1.192 2.048-2.807 3.644-4.843 4.786-2.036 1.143-4.283 1.714-6.742 1.714-2.458 0-4.711-.571-6.76-1.714m11.77-6.183c1.254-1.39 1.881-3.228 1.881-5.513 0-2.31-.627-4.153-1.88-5.531-1.255-1.379-2.925-2.068-5.01-2.068-2.112 0-3.794.684-5.048 2.049-1.254 1.366-1.88 3.216-1.88 5.55 0 2.31.626 4.153 1.88 5.531 1.254 1.379 2.936 2.068 5.047 2.068 2.086 0 3.756-.695 5.01-2.086" fill="#fff" fill-rule="evenodd" data-name="Path 2"/><path d="m69.841 27.825-5.327-8.009-4.693 8.009h-7.226l8.38-13.298-8.566-12.85h7.412l5.252 7.896 4.62-7.897h7.225l-8.306 13.186 8.642 12.963H69.84Z" fill="#fff" fill-rule="evenodd" data-name="Path 3"/><path d="M82.654 2.16C84.294.72 86.516 0 89.322 0c1.862 0 3.458.323 4.787.969 1.328.646 2.333 1.527 3.017 2.644.682 1.118 1.024 2.372 1.024 3.762 0 1.64-.41 2.974-1.23 4.005-.819 1.03-1.775 1.732-2.867 2.104v.15c1.415.471 2.532 1.253 3.352 2.346.82 1.093 1.23 2.495 1.23 4.209 0 1.54-.355 2.9-1.062 4.079-.708 1.18-1.739 2.104-3.092 2.775-1.354.67-2.961 1.005-4.824 1.005-2.98 0-5.358-.732-7.133-2.197-1.776-1.465-2.713-3.675-2.812-6.63h6.183c.025 1.092.335 1.955.931 2.588.596.633 1.465.95 2.608.95.968 0 1.719-.28 2.253-.838.534-.559.801-1.297.801-2.216 0-1.192-.379-2.055-1.136-2.59-.758-.533-1.968-.8-3.632-.8h-1.192v-5.178h1.192c1.267 0 2.291-.217 3.073-.651.783-.435 1.174-1.211 1.174-2.328 0-.894-.249-1.59-.745-2.086-.497-.497-1.18-.745-2.049-.745-.944 0-1.645.285-2.105.856-.46.572-.726 1.28-.8 2.124h-6.221c.099-2.657.969-4.706 2.607-6.147" fill="#fff" fill-rule="evenodd" data-name="Path 4"/><path d="m2.603 39.16-.641 1.641H0l3.693-8.975H4.73l3.641 8.975H6.411L5.77 39.16H2.603Zm1.59-4.129-.975 2.45h1.936l-.961-2.45Z" fill="#fff" fill-rule="evenodd" data-name="Path 5"/><path d="M17.078 31.826v5.206c0 1.23-.355 2.181-1.064 2.852-.71.671-1.569 1.007-2.577 1.007-1.017 0-1.878-.336-2.584-1.007-.705-.67-1.057-1.622-1.057-2.852v-5.206h1.769v5.167c0 .778.18 1.344.539 1.699.359.355.803.532 1.333.532.53 0 .974-.177 1.333-.532.36-.355.539-.92.539-1.699v-5.167h1.77Z" fill="#fff" fill-rule="evenodd" data-name="Path 6"/><path d="M23.079 33.493V40.8h-1.77v-7.308h-2.461v-1.667h6.692v1.667H23.08Z" fill="#fff" fill-rule="evenodd" data-name="Path 7"/><path d="M28.066 33.076c.889-.893 1.966-1.34 3.23-1.34 1.266 0 2.345.447 3.238 1.34.893.894 1.34 1.973 1.34 3.238s-.447 2.344-1.34 3.237c-.893.893-1.972 1.34-3.237 1.34-1.265 0-2.342-.447-3.231-1.34-.89-.893-1.333-1.972-1.333-3.237 0-1.265.444-2.344 1.333-3.238m5.231 1.148c-.538-.547-1.205-.82-2-.82-.795 0-1.46.273-1.994.82-.534.547-.801 1.243-.801 2.09 0 .854.267 1.553.801 2.096.534.543 1.199.814 1.994.814.803 0 1.472-.271 2.006-.814.535-.543.802-1.242.802-2.096 0-.847-.27-1.543-.808-2.09" fill="#fff" fill-rule="evenodd" data-name="Path 8"/><path d="M45.144 31.736h.102c.616 0 1.227.135 1.834.404.607.27 1.15.63 1.628 1.084l-1.154 1.064a3.98 3.98 0 0 0-1.147-.641c-.44-.162-.827-.244-1.16-.244h-.103c-.376 0-.729.08-1.058.237-.329.159-.493.413-.493.763 0 .274.13.475.39.603.261.128.63.222 1.11.282l.718.077c1 .12 1.78.39 2.34.814.56.423.84 1.07.84 1.943 0 .837-.328 1.506-.981 2.006-.654.5-1.49.754-2.507.763h-.077c-.846 0-1.596-.169-2.25-.507-.654-.337-1.173-.77-1.558-1.3l1.154-1.065c.23.325.577.607 1.038.846.462.24 1 .36 1.616.36h.077c.521-.01.938-.112 1.25-.309.312-.196.468-.461.468-.794 0-.36-.141-.618-.423-.776-.282-.158-.693-.272-1.231-.34l-.705-.077c-2.026-.24-3.039-1.06-3.039-2.462 0-.82.314-1.476.943-1.968.628-.491 1.42-.745 2.378-.763" fill="#fff" fill-rule="evenodd" data-name="Path 9"/><path d="M52.772 35.455h3.885v1.666h-3.885v2.013h4.206v1.667h-5.975v-8.975h5.975v1.667h-4.206v1.962Z" fill="#fff" fill-rule="evenodd" data-name="Path 10"/><path d="M59.004 31.826h3.051c1.222 0 2.178.319 2.866.955.688.637 1.032 1.447 1.032 2.43 0 .667-.17 1.244-.507 1.73-.337.488-.814.851-1.43 1.09.377.24.821.766 1.334 1.578l.77 1.192h-1.988l-.577-.897c-.359-.547-.639-.898-.84-1.052-.2-.154-.519-.235-.955-.243h-.987V40.8h-1.77v-8.975Zm1.769 1.667v3.449h1.449c.615 0 1.11-.145 1.487-.436.376-.29.564-.722.564-1.295 0-.547-.19-.97-.57-1.27-.38-.298-.874-.448-1.481-.448h-1.449Z" fill="#fff" fill-rule="evenodd" data-name="Path 11"/><path d="M71.505 40.801h-1.052l-3.705-8.975h1.961l2.244 5.731 2.244-5.73h1.961L71.505 40.8Z" fill="#fff" fill-rule="evenodd" data-name="Path 12"/><path d="M79.89 39.134h1.077v1.667h-3.924v-1.667h1.077v-5.641h-1.077v-1.667h3.924v1.667H79.89v5.641Z" fill="#fff" fill-rule="evenodd" data-name="Path 13"/><path d="M87.25 31.736c1.333 0 2.46.496 3.384 1.488l-1.154 1.064c-.607-.59-1.35-.885-2.23-.885-.796 0-1.46.274-1.995.82-.534.548-.8 1.244-.8 2.09 0 .855.266 1.554.8 2.097.534.543 1.2.814 1.994.814.898 0 1.641-.295 2.231-.885l1.154 1.065c-.923.991-2.051 1.487-3.385 1.487-1.265 0-2.342-.447-3.23-1.34-.89-.893-1.334-1.972-1.334-3.237 0-1.265.444-2.344 1.333-3.238.889-.893 1.966-1.34 3.231-1.34" fill="#fff" fill-rule="evenodd" data-name="Path 14"/><path d="M94.429 35.455h3.885v1.666h-3.885v2.013h4.205v1.667H92.66v-8.975h5.975v1.667H94.43v1.962Z" fill="#fff" fill-rule="evenodd" data-name="Path 15"/></g><defs><clipPath id="a"><path d="M0 0h98.634v40.89H0V0z" data-name="Rectangle 1"/></clipPath></defs></svg>